<?xml version="1.0" encoding="UTF-8" standalone="no"?>
<!-- Created with Inkscape (http://www.inkscape.org/) -->

<svg
   xmlns:dc="http://purl.org/dc/elements/1.1/"
   xmlns:cc="http://creativecommons.org/ns#"
   xmlns:rdf="http://www.w3.org/1999/02/22-rdf-syntax-ns#"
   xmlns:svg="http://www.w3.org/2000/svg"
   xmlns="http://www.w3.org/2000/svg"
   xmlns:sodipodi="http://sodipodi.sourceforge.net/DTD/sodipodi-0.dtd"
   xmlns:inkscape="http://www.inkscape.org/namespaces/inkscape"
   width="74.553154mm"
   height="75.200089mm"
   viewBox="0 0 74.553154 75.200089"
   version="1.1"
   id="svg8"
   sodipodi:docname="libre-ref-logo.svg"
   inkscape:version="0.92.4 (5da689c313, 2019-01-14)">
  <defs
     id="defs2" />
  <sodipodi:namedview
     id="base"
     pagecolor="#ffffff"
     bordercolor="#666666"
     borderopacity="1.0"
     inkscape:pageopacity="0.0"
     inkscape:pageshadow="2"
     inkscape:zoom="1.979899"
     inkscape:cx="269.8203"
     inkscape:cy="78.795286"
     inkscape:document-units="mm"
     inkscape:current-layer="layer1"
     showgrid="false"
     inkscape:window-width="1920"
     inkscape:window-height="1026"
     inkscape:window-x="1920"
     inkscape:window-y="0"
     inkscape:window-maximized="0" />
  <metadata
     id="metadata5">
    <rdf:RDF>
      <cc:Work
         rdf:about="">
        <dc:format>image/svg+xml</dc:format>
        <dc:type
           rdf:resource="http://purl.org/dc/dcmitype/StillImage" />
        <dc:title></dc:title>
      </cc:Work>
    </rdf:RDF>
  </metadata>
  <g
     inkscape:label="Layer 1"
     inkscape:groupmode="layer"
     id="layer1"
     transform="translate(-93.271015,-52.054304)">
    <g
       id="g929"
       transform="matrix(1.097556,-0.43555308,0.43555308,1.097556,-84.075916,38.639887)">
      <g
         transform="matrix(1.0435134,0,0,1.0501009,11.469484,-29.338947)"
         id="g4703">
        <g
           id="g965"
           transform="translate(73.666472,49.816365)">
          <g
             id="g955">
            <path
               inkscape:connector-curvature="0"
               id="path945"
               d="m 62.663429,50.456048 a 30.402471,30.177266 0 0 0 -30.402783,30.176627 30.402471,30.177266 0 0 0 30.402783,30.177615 30.402471,30.177266 0 0 0 15.354663,-4.16866 13.673615,13.587837 0 0 1 -8.814843,-12.684113 13.673615,13.587837 0 0 1 13.673405,-13.587626 13.673615,13.587837 0 0 1 9.890944,4.213437 30.402471,30.177266 0 0 0 0.29812,-3.950653 30.402471,30.177266 0 0 0 -30.402289,-30.176627 z m 9.683945,9.908619 a 4.5040699,5.0670783 0 0 1 4.503988,5.067249 4.5040699,5.0670783 0 0 1 -4.503988,5.066755 4.5040699,5.0670783 0 0 1 -4.504481,-5.066755 4.5040699,5.0670783 0 0 1 4.504481,-5.067249 z"
               style="opacity:1;fill:#991200;fill-opacity:1;stroke:none;stroke-width:0.26458299;stroke-linecap:round;stroke-linejoin:round;stroke-dasharray:0.26458297, 0.52916596;paint-order:markers fill stroke" />
            <path
               style="opacity:1;fill:#c17200;fill-opacity:1;stroke:none;stroke-width:1.04680061;stroke-linecap:round;stroke-linejoin:round;stroke-dasharray:1.04680055, 2.09360116;paint-order:markers fill stroke"
               d="m 222.06445,94.509766 a 119.90697,119.77011 0 0 0 -119.9082,119.767574 119.90697,119.77011 0 0 0 119.9082,119.77149 119.90697,119.77011 0 0 0 60.5586,-16.54492 53.928569,53.928569 0 0 1 -34.76563,-50.3418 53.928569,53.928569 0 0 1 53.92774,-53.92773 53.928569,53.928569 0 0 1 39.00976,16.72265 119.90697,119.77011 0 0 0 1.17578,-15.67969 A 119.90697,119.77011 0 0 0 222.06445,94.509766 Z m 38.19336,39.326174 a 17.763996,20.110653 0 0 1 17.76367,20.11133 17.763996,20.110653 0 0 1 -17.76367,20.10937 17.763996,20.110653 0 0 1 -17.76562,-20.10937 17.763996,20.110653 0 0 1 17.76562,-20.11133 z"
               transform="matrix(0.25355049,0,0,0.25195991,5.8517782,26.139456)"
               id="path4697"
               inkscape:connector-curvature="0" />
          </g>
          <g
             id="g951">
            <ellipse
               style="opacity:1;fill:#ff0b0b;fill-opacity:1;stroke:none;stroke-width:0.17469735;stroke-linecap:round;stroke-linejoin:round;stroke-dasharray:0.17469736, 0.34939471;paint-order:markers fill stroke"
               id="path937"
               cx="44.518223"
               cy="66.637962"
               rx="4.2560263"
               ry="4.2293272" />
            <ellipse
               ry="4.2293272"
               rx="4.2560263"
               cy="77.796188"
               cx="40.533859"
               id="ellipse939"
               style="opacity:1;fill:#0bff39;fill-opacity:1;stroke:none;stroke-width:0.17469735;stroke-linecap:round;stroke-linejoin:round;stroke-dasharray:0.17469736, 0.34939471;paint-order:markers fill stroke" />
            <ellipse
               style="opacity:1;fill:#580bff;fill-opacity:1;stroke:none;stroke-width:0.17469735;stroke-linecap:round;stroke-linejoin:round;stroke-dasharray:0.17469736, 0.34939471;paint-order:markers fill stroke"
               id="ellipse941"
               cx="42.163826"
               cy="89.854263"
               rx="4.2560263"
               ry="4.2293272" />
            <ellipse
               ry="4.2293272"
               rx="4.2560263"
               cy="99.392754"
               cx="49.589233"
               id="ellipse943"
               style="opacity:1;fill:#ffeb0b;fill-opacity:1;stroke:none;stroke-width:0.17469735;stroke-linecap:round;stroke-linejoin:round;stroke-dasharray:0.17469736, 0.34939471;paint-order:markers fill stroke" />
          </g>
        </g>
      </g>
    </g>
    <g
       id="g983"
       transform="translate(50.914846,-23.386084)">
      <g
         style="fill:#a4a4a4;fill-opacity:1"
         transform="translate(0.11260175,-1.8675886)"
         id="g4695">
        <rect
           transform="matrix(-0.91868709,-0.39498611,-3.6071489e-8,1,0,0)"
           style="opacity:1;fill:#a4a4a4;fill-opacity:1;stroke:none;stroke-width:0.26168439;stroke-linecap:round;stroke-linejoin:round;stroke-dasharray:0.26168441, 0.52336882;paint-order:markers fill stroke"
           id="rect4691"
           width="30.264975"
           height="43.584034"
           x="-86.950287"
           y="64.812279" />
        <rect
           y="133.69843"
           x="87.02861"
           height="43.584034"
           width="30.118746"
           id="rect4522-2"
           style="opacity:1;fill:#a4a4a4;fill-opacity:1;stroke:none;stroke-width:0.26105148;stroke-linecap:round;stroke-linejoin:round;stroke-dasharray:0.26105146, 0.52210293;paint-order:markers fill stroke"
           transform="matrix(0.91786022,-0.39690379,3.5864896e-8,1,0,0)" />
      </g>
      <g
         transform="matrix(0.9188689,0,0,0.90540745,5.7612982,-1.1416294)"
         id="g4687">
        <g
           style="stroke:none"
           id="g4611"
           transform="matrix(1,0.43089171,0,1,0,-28.475828)">
          <rect
             transform="skewY(-0.00533263)"
             y="103.36676"
             x="51.435463"
             height="46.021202"
             width="29.300695"
             id="rect4520"
             style="opacity:1;fill:#edecff;fill-opacity:1;stroke:none;stroke-width:0.26458299;stroke-linecap:round;stroke-linejoin:round;stroke-dasharray:0.26458298, 0.52916598;paint-order:markers fill stroke" />
          <flowRoot
             transform="matrix(0.52985388,0,0,0.52985388,-59.675778,-117.53978)"
             style="font-style:normal;font-weight:normal;font-size:40px;line-height:1.25;font-family:sans-serif;letter-spacing:0px;word-spacing:0px;fill:#858585;fill-opacity:1;stroke:none"
             id="flowRoot4558"
             xml:space="preserve"><flowRegion
               style="fill:#858585;fill-opacity:1;stroke:none"
               id="flowRegion4560"><rect
                 style="fill:#858585;fill-opacity:1;stroke:none"
                 y="403.89526"
                 x="206.43901"
                 height="113.7521"
                 width="73.427292"
                 id="rect4562" /></flowRegion><flowPara
               style="font-style:italic;font-variant:normal;font-weight:bold;font-stretch:normal;font-size:96px;font-family:Ubuntu;-inkscape-font-specification:'Ubuntu, Bold Italic';font-variant-ligatures:normal;font-variant-caps:normal;font-variant-numeric:normal;font-feature-settings:normal;text-align:start;writing-mode:lr-tb;text-anchor:start;fill:#858585;fill-opacity:1;stroke:none"
               id="flowPara4564">L</flowPara></flowRoot>        </g>
        <g
           transform="translate(2.6846339e-6,-1.1856891e-5)"
           style="stroke:none"
           id="g4660">
          <rect
             transform="matrix(0.91840266,-0.39564701,0,1,0,0)"
             style="opacity:1;fill:#ffffff;fill-opacity:1;stroke:none;stroke-width:0.27608663;stroke-linecap:round;stroke-linejoin:round;stroke-dasharray:0.27608662, 0.55217322;paint-order:markers fill stroke"
             id="rect4522"
             width="31.903975"
             height="46.021202"
             x="87.909325"
             y="144.45303" />
          <flowRoot
             xml:space="preserve"
             id="flowRoot4584"
             style="font-style:normal;font-weight:normal;font-size:40px;line-height:1.25;font-family:sans-serif;letter-spacing:0px;word-spacing:0px;fill:#ff6363;fill-opacity:1;stroke:none"
             transform="matrix(0.42916114,-0.18533729,0,0.51553454,-9.1946772,-65.32252)"><flowRegion
               style="fill:#ff6363;fill-opacity:1;stroke:none"
               id="flowRegion4580"><rect
                 style="fill:#ff6363;fill-opacity:1;stroke:none"
                 id="rect4578"
                 width="73.427292"
                 height="113.7521"
                 x="206.43901"
                 y="403.89526" /></flowRegion><flowPara
               id="flowPara4582"
               style="font-style:italic;font-variant:normal;font-weight:bold;font-stretch:normal;font-size:96px;font-family:Ubuntu;-inkscape-font-specification:'Ubuntu, Bold Italic';font-variant-ligatures:normal;font-variant-caps:normal;font-variant-numeric:normal;font-feature-settings:normal;text-align:start;writing-mode:lr-tb;text-anchor:start;fill:#ff6363;fill-opacity:1;stroke:none">R</flowPara></flowRoot>        </g>
      </g>
    </g>
    <circle
       style="opacity:0.41256068;fill:#b69bff;fill-opacity:1;stroke:none;stroke-width:0.26458299;stroke-linecap:round;stroke-linejoin:round;stroke-dasharray:0.26458298, 0.52916597;paint-order:markers fill stroke"
       id="path4518"
       cx="79.947243"
       cy="124.60673"
       r="0" />
    <text
       xml:space="preserve"
       style="font-style:normal;font-weight:normal;font-size:10.58333302px;line-height:1.25;font-family:sans-serif;letter-spacing:0px;word-spacing:0px;fill:#000000;fill-opacity:1;stroke:none;stroke-width:0.26458332"
       x="78.02903"
       y="118.64793"
       id="text4526"><tspan
         sodipodi:role="line"
         id="tspan4524"
         x="78.02903"
         y="128.01169"
         style="stroke-width:0.26458332" /></text>
  </g>
</svg>
